<?xml version="1.0" standalone="no"?><!DOCTYPE svg PUBLIC "-//W3C//DTD SVG 1.1//EN" "http://www.w3.org/Graphics/SVG/1.1/DTD/svg11.dtd"><svg class="icon" height="512" viewBox="0 0 1024 1024" version="1.1" xmlns="http://www.w3.org/2000/svg"><path d="M224.918609 601.63139h246.488881v44.818765H224.918609z" fill="" /><path d="M547.553751 915.346371H154.695245c-23.064298 0-41.817408-19.47454-41.817408-43.37181 0 0 0.106424-582.826092 0.002046-584.160483 0.045025-22.892383 21.785166-44.534286 44.811602-44.709271h67.225078v67.223031h403.344324v-67.223031h67.224054c23.041786 0 44.815695 18.030655 44.815695 41.970904l0.001023 475.445456 44.813649-42.564422V285.205671a89.204671 89.204671 0 0 0-6.626931-33.82948 86.614683 86.614683 0 0 0-18.077727-27.614941c-7.721869-8.009418-16.758686-14.268982-26.848485-18.645662-10.391674-4.551666-21.420869-6.827499-32.821523-6.827499h-72.476685v-21.13946c0-28.229948-17.003256-46.084595-44.817742-46.084594h-44.815694c-18.625196-37.683251-69.698408-67.224054-112.041796-67.224055-42.320874 0-93.4166 29.540803-112.039749 67.224055h-44.815695c-27.812439 0-44.815695 17.854647-44.815695 46.084594v21.13946h-72.455196c-11.400654 0-22.450315 2.276856-32.866548 6.827499-10.066263 4.376681-19.083637 10.635221-26.828019 18.645662-7.724938 7.964392-13.809517 17.242709-18.07568 27.614941a89.239464 89.239464 0 0 0-6.631024 33.82948v587.991741c0 11.775184 2.252297 23.153326 6.631024 33.873482 4.266164 10.372232 10.350742 19.649526 18.07568 27.616988 7.744381 8.006348 16.761756 14.266935 26.828019 18.642592 10.41521 4.508687 21.466917 6.827499 32.866548 6.827499H592.283488l-44.729737-44.811602zM269.734304 198.287065c0-15.492856 17.002232-22.407336 22.410406-22.407335h67.222007l0.524956-22.757307c9.826809-28.884864 36.607756-44.467771 66.699098-44.467771 30.090319 0 55.320956 18.4717 64.883753 46.043663l2.339278 21.182438h67.222008c5.427616 0 22.409382 4.813632 22.409382 22.407336v67.225077H269.734304v-67.226101z" fill="" /><path d="M224.918609 467.185328H628.262934v44.815695H224.918609zM224.918609 713.672162h134.448108v44.817742H224.918609z" fill="" /><path d="M668.851351 952.196651c-10.339486 10.258645-26.580379 10.653641-36.275182 0.88209L476.709239 795.97668c-9.694803-9.771551-9.17087-26.00835 1.168616-36.266995 10.339486-10.258645 26.580379-10.653641 36.275181-0.88209l155.865907 157.102061c9.695826 9.770528 9.171893 26.00835-1.167592 36.266995z" fill="" /><path d="M947.979606 638.112256c10.258645 10.339486 10.653641 26.581402 0.88209 36.275181l-281.040815 278.830473c-9.771551 9.694803-26.00835 9.17087-36.266995-1.168615-10.258645-10.339486-10.653641-26.581402-0.882089-36.275182l281.040814-278.830473c9.770528-9.694803 26.00835-9.171893 36.266995 1.168616z" fill="" /></svg>